<?xml version="1.0" encoding="UTF-8"?>
<svg width="283.465pt" version="1.1" xmlns="http://www.w3.org/2000/svg" height="283.465pt" viewBox="0 0 283.465 283.465" xmlns:xlink="http://www.w3.org/1999/xlink">
 <defs>
  <clipPath id="Clip0">
   <path d="M0 0 L283.465 0 L283.465 219.486 L0 219.486 L0 0 Z" transform="translate(-5.91954e-06, 31.9892)"/>
  </clipPath>
  <clipPath id="Clip1">
   <path d="M0 0 L283.465 0 L283.465 219.486 L0 219.486 L0 0 Z" transform="translate(-5.91954e-06, 31.9892)"/>
  </clipPath>
 </defs>
 <g id="Hintergrund">
  <g id="Kopie von Layer_1" clip-path="url(#Clip0)">
   <g id="Kopie von Gruppe7 (2)" clip-path="url(#Clip1)">
    <path style="fill:#ff5e00; fill-rule:evenodd;stroke:none;" d="M274.055 0 L9.40955 0 C4.21884 0 0 4.22252 0 9.41323 L0 28.3501 C0 29.2226 0.946109 30.2239 1.7192 30.6289 L140.823 110.084 C141.184 110.293 141.589 110.389 141.993 110.389 C142.406 110.389 142.822 110.282 143.186 110.065 L278.086 30.7062 C278.845 30.2829 280.854 29.1637 281.609 28.6483 C282.522 28.0262 283.464 27.4629 283.464 26.3475 L283.464 9.40955 C283.464 4.22252 279.246 0 274.055 0 Z" transform="translate(-5.91954e-06, 31.9892)"/>
    <path style="fill:#ff5e00; fill-rule:evenodd;stroke:none;" d="M79.9444 0.427038 C79.208 0 78.3099 0.0184068 77.5699 0.441763 L1.22957 45.358 C0.618468 45.7114 0.195111 46.3372 0.0920339 47.044 C0 47.7472 0.220882 48.4651 0.695777 48.9841 L77.0471 131.289 C77.5 131.778 78.1184 132.039 78.7663 132.039 C79.0571 132.039 79.3517 131.984 79.6278 131.88 C80.5297 131.524 81.1187 130.659 81.1187 129.687 L81.1187 2.4702 C81.1187 1.62348 80.6733 0.846713 79.9444 0.427038 Z" transform="translate(202.346, 88.4649)"/>
    <path style="fill:#ff5e00; fill-rule:evenodd;stroke:none;" d="M178.093 0.993967 C177.343 0.180386 176.134 0 175.182 0.559567 L144.582 18.5651 C140.989 20.6782 136.387 20.6966 132.772 18.6424 L105.843 3.258 C104.952 2.75366 103.829 2.87514 103.078 3.5746 L0.817261 98.4285 C0.272421 98.9366 0 99.6691 0.0809899 100.409 C0.161979 101.149 0.592699 101.812 1.23693 102.183 C2.82729 103.119 4.36241 103.564 5.92331 103.564 L267.863 103.564 C268.801 103.564 269.648 103.008 270.016 102.147 C270.392 101.293 270.223 100.295 269.582 99.6102 L178.093 0.993967 Z" transform="translate(3.48256, 147.911)"/>
    <path style="fill:#ff5e00; fill-rule:evenodd;stroke:none;" d="M84.0601 49.9449 C84.6123 49.4407 84.8884 48.697 84.8075 47.957 C84.7264 47.2134 84.2847 46.5545 83.6368 46.179 L3.50833 0.412313 C2.79415 0 1.89222 0.00736271 1.16331 0.427038 C0.441763 0.846713 0 1.62348 0 2.45915 L0 122.545 C0 123.476 0.552203 124.323 1.40628 124.695 C1.70815 124.831 2.02843 124.898 2.35239 124.898 C2.93036 124.898 3.50833 124.68 3.95009 124.268 L84.0601 49.9449 Z" transform="translate(-5.91954e-06, 90.3203)"/>
   </g>
  </g>
 </g>
</svg>
