<?xml version="1.0" encoding="UTF-8"?>
<svg width="283.465pt" version="1.1" xmlns="http://www.w3.org/2000/svg" height="283.465pt" viewBox="0 0 283.465 283.465" xmlns:xlink="http://www.w3.org/1999/xlink">
 <defs>
  <linearGradient id="Grad0" y1="0" x1="0" y2="283.465" gradientUnits="userSpaceOnUse" x2="283.465">
   <stop offset="0%" stop-color="#ffffff" stop-opacity="1"/>
   <stop offset="50%" stop-color="#ff5e00" stop-opacity="1"/>
  </linearGradient>
  <clipPath id="Clip0">
   <path d="M0 0 L246.614 0 L246.614 190.953 L0 190.953 L0 0 Z" transform="translate(18.4252, 46.2558)"/>
  </clipPath>
  <clipPath id="Clip1">
   <path d="M0 0 L246.614 0 L246.614 190.953 L0 190.953 L0 0 Z" transform="translate(18.4252, 46.2558)"/>
  </clipPath>
 </defs>
 <g id="Hintergrund">
  <g transform="translate(0, 0)">
   <path style="fill:url(#Grad0); fill-rule:evenodd;" d="M0 0 L283.465 0 L283.465 283.465 L0 283.465 L0 0 Z"/>
   <path style="fill:none; stroke:none;" d="M0 0 L283.465 0 L283.465 283.465 L0 283.465 L0 0 Z"/>
  </g>
  <g id="Layer_1" clip-path="url(#Clip0)">
   <g id="Kopie von Gruppe7" clip-path="url(#Clip1)">
    <path style="fill:#ffffff; fill-rule:nonzero;stroke:none;" d="M238.428 0 L8.18631 0 C3.67039 0 0 3.67359 0 8.18951 L0 24.6646 C0 25.4237 0.823115 26.2948 1.4957 26.6471 L122.516 95.7728 C122.83 95.9553 123.182 96.0386 123.534 96.0386 C123.893 96.0386 124.255 95.9457 124.572 95.7568 L241.935 26.7144 C242.595 26.3461 244.343 25.3724 245 24.924 C245.794 24.3828 246.614 23.8927 246.614 22.9223 L246.614 8.18631 C246.614 3.67359 242.944 0 238.428 0 Z" transform="translate(18.4252, 46.2558)"/>
    <path style="fill:#ffffff; fill-rule:nonzero;stroke:none;" d="M69.5516 0.371523 C68.911 0 68.1296 0.0160139 67.4858 0.384334 L1.06973 39.4615 C0.538067 39.7689 0.169747 40.3134 0.0800695 40.9283 C0 41.5401 0.192167 42.1646 0.605326 42.6162 L67.031 114.221 C67.425 114.647 67.963 114.874 68.5267 114.874 C68.7797 114.874 69.036 114.826 69.2762 114.736 C70.0608 114.426 70.5733 113.673 70.5733 112.828 L70.5733 2.14907 C70.5733 1.41243 70.1858 0.73664 69.5516 0.371523 Z" transform="translate(194.466, 95.3896)"/>
    <path style="fill:#ffffff; fill-rule:nonzero;stroke:none;" d="M154.941 0.864751 C154.288 0.156936 153.237 0 152.408 0.486823 L125.786 16.1516 C122.66 17.99 118.657 18.006 115.512 16.2189 L92.0832 2.83446 C91.3081 2.39568 90.3312 2.50137 89.6779 3.1099 L0.711017 85.6328 C0.237006 86.0748 0 86.7121 0.0704612 87.3559 C0.140922 87.9996 0.515648 88.5761 1.07613 88.8996 C2.45974 89.7131 3.7953 90.1006 5.15328 90.1006 L233.041 90.1006 C233.857 90.1006 234.594 89.617 234.914 88.8676 C235.241 88.1245 235.094 87.2566 234.536 86.6609 L154.941 0.864751 Z" transform="translate(21.455, 147.108)"/>
    <path style="fill:#ffffff; fill-rule:nonzero;stroke:none;" d="M73.1323 43.4521 C73.6127 43.0134 73.8529 42.3664 73.7825 41.7226 C73.712 41.0757 73.3277 40.5024 72.764 40.1757 L3.05225 0.358712 C2.43091 0 1.64623 0.00640556 1.01208 0.371523 C0.384334 0.73664 0 1.41243 0 2.13946 L0 106.614 C0 107.424 0.480417 108.161 1.22346 108.485 C1.48609 108.603 1.76473 108.661 2.04658 108.661 C2.54941 108.661 3.05225 108.472 3.43658 108.113 L73.1323 43.4521 Z" transform="translate(18.4252, 97.0038)"/>
   </g>
  </g>
 </g>
</svg>
